Coordinates
version=1
nRows=8
nColumns=60
inDegrees=yes

Units are S.I. units (second, meters, Newtons, ...)
If the header above contains a line with 'inDegrees', this indicates whether rotational values are in degrees (yes) or radians (no).

endheader
time	pelvis_tilt	pelvis_list	pelvis_rotation	pelvis_tx	pelvis_ty	pelvis_tz	hip_flexion_r	hip_adduction_r	hip_rotation_r	knee_angle_r_beta	knee_angle_r	ankle_angle_r	subtalar_angle_r	mtp_angle_r	hip_flexion_l	hip_adduction_l	hip_rotation_l	knee_angle_l_beta	knee_angle_l	ankle_angle_l	subtalar_angle_l	mtp_angle_l	L5_S1_Flex_Ext	L5_S1_Lat_Bending	L5_S1_axial_rotation	L4_L5_Flex_Ext	L4_L5_Lat_Bending	L4_L5_axial_rotation	L3_L4_Flex_Ext	L3_L4_Lat_Bending	L3_L4_axial_rotation	L2_L3_Flex_Ext	L2_L3_Lat_Bending	L2_L3_axial_rotation	L1_L2_Flex_Ext	L1_L2_Lat_Bending	L1_L2_axial_rotation	L1_T12_Flex_Ext	L1_T12_Lat_Bending	L1_T12_axial_rotation	Abs_r3	Abs_r2	Abs_r1	Abs_t1	Abs_t2	arm_flex_r	arm_add_r	arm_rot_r	elbow_flex_r	pro_sup_r	wrist_flex_r	wrist_dev_r	arm_flex_l	arm_add_l	arm_rot_l	elbow_flex_l	pro_sup_l	wrist_flex_l	wrist_dev_l
     44.57000000	     -0.40443176	      6.44918869	     91.32655130	      0.40256388	      0.94335787	      0.29292811	      3.90393706	     -5.49929616	      0.58463931	      0.25292926	    -14.49177915	      5.71104081	      0.00000000	      0.00000000	      3.68100641	     -5.04018706	     -2.67157211	      0.21749659	    -12.46163661	      5.38316272	      0.00000000	      0.00000000	     -6.84973442	      0.15021364	      0.08086227	    -12.72064179	      0.19978415	      0.08591616	    -11.25342868	      0.36522945	      0.08591616	     -7.82856147	      0.36522945	      0.07075449	     -6.36066338	      0.30631566	      0.06570059	     -3.91393825	      0.23268093	      0.06064670	    -48.92696800	      1.69924677	      0.44973169	      0.00000000	      0.00000000	     47.49447249	    -23.17144000	      4.45104737	     84.58682168	     71.09497592	      4.56430398	     28.21619605	     52.99030283	    -25.25585327	     13.80337435	     74.67108757	     57.35358827	      8.48134239	     17.52522506
     44.58000000	     -0.39005421	      6.66396457	     91.40998759	      0.40248086	      0.94358254	      0.29125757	      3.50790932	     -5.47576825	      0.44133946	      0.25203495	    -14.44053914	      5.86409079	      0.00000000	      0.00000000	      3.34061955	     -5.06341089	     -2.69235453	      0.21732033	    -12.45153786	      5.53803860	      0.00000000	      0.00000000	     -6.85099062	      0.15371001	      0.07521743	    -12.72297468	      0.20443431	      0.07991852	    -11.25549249	      0.37373051	      0.07991852	     -7.82999718	      0.37373051	      0.06581525	     -6.36182989	      0.31344545	      0.06111416	     -3.91465604	      0.23809680	      0.05641307	    -48.93594089	      1.73879835	      0.41833677	      0.00000000	      0.00000000	     45.34521843	    -23.25649938	      3.52501549	     86.68384626	     71.43789279	      4.41126996	     28.24326820	     50.87795560	    -25.32464920	     12.68587363	     76.62391998	     57.77483512	      8.31283993	     17.42564565
     44.59000000	     -0.36733572	      6.87202912	     91.49830663	      0.40240377	      0.94370984	      0.28958988	      3.10196525	     -5.44076424	      0.25634274	      0.25057897	    -14.35711734	      6.06682310	      0.00000000	      0.00000000	      2.98808919	     -5.10144717	     -2.73560968	      0.21642823	    -12.40042393	      5.75408641	      0.00000000	      0.00000000	     -6.85127863	      0.15770812	      0.06390575	    -12.72350955	      0.20975180	      0.06789985	    -11.25596567	      0.38345153	      0.06789985	     -7.83032635	      0.38345153	      0.05591753	     -6.36209734	      0.32159840	      0.05192342	     -3.91482061	      0.24428988	      0.04792931	    -48.93799816	      1.78402582	      0.35542459	      0.00000000	      0.00000000	     43.24158069	    -23.31303155	      2.67088226	     88.71535004	     71.78566909	      4.26019079	     28.27871635	     48.77491035	    -25.39657069	     11.63100621	     78.52529153	     58.20345613	      8.13475404	     17.34057094
     44.60000000	     -0.33157403	      7.15197765	     91.56242189	      0.40230616	      0.94390534	      0.28809958	      2.68851066	     -5.39073671	      0.21329369	      0.25112715	    -14.38852565	      6.18445100	      0.00000000	      0.00000000	      2.60981987	     -5.13901840	     -2.61776868	      0.21738706	    -12.45536079	      5.90685491	      0.00000000	      0.00000000	     -6.87008060	      0.16349195	      0.05725780	    -12.75842667	      0.21744430	      0.06083641	    -11.28685541	      0.39751433	      0.06083641	     -7.85181511	      0.39751433	      0.05010057	     -6.37955684	      0.33339279	      0.04652196	     -3.92556405	      0.25324903	      0.04294335	    -49.07229869	      1.84945367	      0.31845070	      0.00000000	      0.00000000	     41.26000145	    -23.33214680	      1.83181955	     90.57489350	     72.23557894	      4.06338546	     28.36158936	     46.73704937	    -25.43349370	     10.49024701	     80.44576188	     58.76304363	      7.87995277	     17.27789936
     44.61000000	     -0.27635026	      7.39570071	     91.64425614	      0.40220146	      0.94399649	      0.28658195	      2.28507752	     -5.32187322	      0.08548825	      0.25063595	    -14.36038190	      6.33447221	      0.00000000	      0.00000000	      2.24274853	     -5.21497476	     -2.61036137	      0.21714581	    -12.44153866	      6.12620897	      0.00000000	      0.00000000	     -6.87795444	      0.16739571	      0.02620050	    -12.77304918	      0.22263629	      0.02783803	    -11.29979134	      0.40700593	      0.02783803	     -7.86081412	      0.40700593	      0.02292544	     -6.38686849	      0.34135333	      0.02128790	     -3.93006316	      0.25929595	      0.01965037	    -49.12854074	      1.89361375	      0.14571931	      0.00000000	      0.00000000	     39.44876985	    -23.28121120	      1.25155434	     92.18479358	     73.07243320	      3.69286546	     28.63081882	     44.64028037	    -25.52469029	      9.35505766	     82.23578059	     59.81048559	      7.33745036	     17.35801974
     44.62000000	     -0.24141484	      7.64950915	     91.71783660	      0.40212804	      0.94403995	      0.28520724	      1.88293037	     -5.27015941	      0.00786196	      0.25032611	    -14.34262947	      6.55683974	      0.00000000	      0.00000000	      1.87488067	     -5.26044404	     -2.52910949	      0.21687140	    -12.42581563	      6.38092636	      0.00000000	      0.00000000	     -6.88640521	      0.16677161	      0.00663370	    -12.78874312	      0.22180625	      0.00704831	    -11.31367512	      0.40548850	      0.00704831	     -7.87047252	      0.40548850	      0.00580449	     -6.39471588	      0.34008067	      0.00538988	     -3.93489194	      0.25832923	      0.00497528	    -49.18890379	      1.88655385	      0.03689466	      0.00000000	      0.00000000	     37.63736797	    -23.29042680	      0.67894566	     93.69041643	     73.48365813	      3.46466449	     28.73200272	     42.73606347	    -25.62589133	      8.53608008	     83.85928059	     60.31695077	      7.02564012	     17.38890826
     44.63000000	     -0.20272454	      7.83147330	     91.79109098	      0.40202968	      0.94393660	      0.28379678	      1.52403162	     -5.22751574	     -0.18208782	      0.24843029	    -14.23400716	      6.83171077	      0.00000000	      0.00000000	      1.53697315	     -5.31500873	     -2.61311937	      0.21487667	    -12.31152611	      6.69539007	      0.00000000	      0.00000000	     -6.86842289	      0.16518946	     -0.01487194	    -12.75534815	      0.21970198	     -0.01580144	    -11.28413196	      0.40164166	     -0.01580144	     -7.84992052	      0.40164166	     -0.01301295	     -6.37801749	      0.33685435	     -0.01208345	     -3.92461684	      0.25587848	     -0.01115395	    -49.06045785	      1.86865623	     -0.08271326	      0.00000000	      0.00000000	     35.86472175	    -23.35587076	      0.31445646	     94.87407544	     73.68527148	      3.34263321	     28.76727400	     40.94742737	    -25.75127020	      8.01355917	     85.11514481	     60.55896469	      6.86435575	     17.39199567
     44.64000000	     -0.15789464	      8.08253414	     91.86529753	      0.40199874	      0.94400361	      0.28266220	      1.16482672	     -5.16108101	     -0.19232064	      0.24916985	    -14.27638060	      7.00652010	      0.00000000	      0.00000000	      1.22050170	     -5.38028581	     -2.49688353	      0.21561923	    -12.35407167	      6.90998719	      0.00000000	      0.00000000	     -6.88378056	      0.16373549	     -0.03487925	    -12.78386888	      0.21776820	     -0.03705920	    -11.30936308	      0.39810646	     -0.03705920	     -7.86747280	      0.39810646	     -0.03051934	     -6.39227863	      0.33388940	     -0.02833939	     -3.93339221	      0.25362627	     -0.02615943	    -49.17015615	      1.85220857	     -0.19398790	      0.00000000	      0.00000000	     34.16847934	    -23.35465879	     -0.18986061	     96.20314124	     73.92016059	      3.19331677	     28.78215807	     39.12542801	    -25.82792851	      7.21919888	     86.62770999	     60.83247857	      6.66445112	     17.37616765
